<?xml version="1.0" standalone="no"?>
<!DOCTYPE svg PUBLIC "-//W3C//DTD SVG 20010904//EN"
 "http://www.w3.org/TR/2001/REC-SVG-20010904/DTD/svg10.dtd">
<svg version="1.0" xmlns="http://www.w3.org/2000/svg"
 width="128.000000pt" height="128.000000pt" viewBox="0 0 128.000000 128.000000"
 preserveAspectRatio="xMidYMid meet">
<metadata>
Created by potrace 1.16, written by Peter Selinger 2001-2019
</metadata>
<g transform="translate(0.000000,128.000000) scale(0.100000,-0.100000)"
fill="#ee2211" stroke="none">
<path d="M940 1158 c-72 -37 -85 -64 -85 -174 l0 -95 -120 -94 c-66 -51 -124
-90 -130 -86 -5 4 -66 48 -135 97 l-124 89 83 5 c67 4 85 9 97 24 20 28 17 53
-7 77 -19 19 -30 20 -136 17 l-115 -3 -29 -33 c-52 -58 -37 -129 40 -183 25
-19 89 -65 142 -104 l97 -71 -33 -22 -32 -23 -58 31 c-133 70 -296 19 -368
-115 -31 -57 -31 -183 0 -241 51 -95 136 -147 243 -147 81 0 143 28 199 88 62
67 87 186 56 266 -4 12 39 51 166 150 95 74 181 140 190 147 16 11 19 6 33
-43 9 -30 19 -60 21 -68 4 -8 -8 -18 -31 -26 -57 -21 -126 -96 -147 -160 -21
-66 -21 -102 -1 -172 31 -104 148 -189 259 -189 97 0 200 66 241 154 31 66 33
171 5 233 -27 57 -94 120 -153 140 l-49 18 -29 95 c-76 246 -78 329 -9 318 23
-3 31 -14 46 -63 7 -26 13 -30 50 -33 34 -3 44 1 53 19 28 52 -16 146 -84 178
-54 27 -91 26 -146 -1z m-591 -656 c41 -30 63 -67 68 -115 13 -113 -116 -204
-216 -152 -43 22 -78 69 -86 115 -21 124 135 225 234 152z m731 6 c82 -42 113
-149 62 -217 -71 -97 -191 -93 -259 8 -49 72 -13 179 72 217 43 19 75 17 125
-8z"/>
</g>
</svg>
