<?xml version="1.0" standalone="no"?>
<!DOCTYPE svg PUBLIC "-//W3C//DTD SVG 20010904//EN"
 "http://www.w3.org/TR/2001/REC-SVG-20010904/DTD/svg10.dtd">
<svg version="1.0" xmlns="http://www.w3.org/2000/svg"
 width="128.000000pt" height="128.000000pt" viewBox="0 0 128.000000 128.000000"
 preserveAspectRatio="xMidYMid meet">
<metadata>
Created by potrace 1.16, written by Peter Selinger 2001-2019
</metadata>
<g transform="translate(0.000000,128.000000) scale(0.100000,-0.100000)"
fill="#ee2211" stroke="none">
<path d="M586 1269 c-25 -15 -216 -408 -216 -445 0 -40 24 -71 60 -79 22 -5
51 3 120 33 l90 40 90 -40 c69 -30 98 -38 120 -33 36 8 60 39 60 79 0 40 -192
431 -218 445 -26 14 -81 14 -106 0z"/>
<path d="M245 1043 c-27 -27 -63 -71 -81 -100 -34 -53 -84 -185 -84 -222 0
-15 -6 -21 -21 -21 -41 0 -59 -18 -59 -60 0 -41 18 -60 57 -60 15 0 22 -12 31
-59 20 -94 82 -208 154 -279 71 -72 185 -134 279 -154 47 -9 59 -16 59 -31 0
-39 19 -57 60 -57 41 0 60 18 60 57 0 15 12 22 59 31 94 20 208 82 279 154 72
71 134 185 154 279 9 47 16 59 31 59 39 0 57 19 57 60 0 42 -18 60 -59 60 -15
0 -21 6 -21 21 0 37 -50 169 -84 222 -49 78 -124 147 -157 147 -30 0 -59 -31
-59 -62 0 -9 25 -43 56 -75 58 -60 109 -152 120 -215 l6 -38 -42 0 c-62 0 -80
-13 -80 -60 0 -47 18 -60 80 -60 l42 0 -6 -37 c-26 -149 -190 -313 -338 -339
l-38 -6 0 42 c0 62 -13 80 -60 80 -47 0 -60 -18 -60 -80 l0 -42 -37 7 c-152
28 -313 189 -339 338 l-6 37 42 0 c62 0 80 13 80 60 0 47 -18 60 -80 60 l-42
0 6 38 c11 63 62 155 120 215 59 61 65 79 40 115 -26 37 -64 29 -119 -25z"/>
</g>
</svg>
