<?xml version="1.0" standalone="no"?>
<!DOCTYPE svg PUBLIC "-//W3C//DTD SVG 20010904//EN"
 "http://www.w3.org/TR/2001/REC-SVG-20010904/DTD/svg10.dtd">
<svg version="1.0" xmlns="http://www.w3.org/2000/svg"
 width="128.000000pt" height="128.000000pt" viewBox="0 0 128.000000 128.000000"
 preserveAspectRatio="xMidYMid meet">
<metadata>
Created by potrace 1.16, written by Peter Selinger 2001-2019
</metadata>
<g transform="translate(0.000000,128.000000) scale(0.100000,-0.100000)"
fill="#ee2211" stroke="none">
<path d="M488 1215 c-233 -59 -413 -237 -473 -470 -19 -76 -20 -243 0 -320 34
-136 146 -298 239 -348 40 -21 49 -22 386 -22 337 0 346 1 386 22 95 51 205
213 240 353 24 97 15 282 -18 372 -36 97 -84 172 -154 242 -72 72 -145 118
-246 153 -91 33 -268 41 -360 18z m330 -133 c131 -50 229 -138 291 -262 98
-197 69 -421 -77 -582 -67 -74 -62 -73 -392 -73 -335 0 -326 -2 -400 82 -60
68 -108 175 -122 270 -41 285 176 562 462 592 82 8 172 -2 238 -27z"/>
<path d="M550 1010 c-125 -26 -245 -124 -301 -245 -71 -151 -42 -348 69 -464
43 -46 72 -51 102 -21 28 28 25 51 -11 96 -54 67 -79 131 -79 205 0 87 22 148
77 209 65 73 127 101 236 109 61 5 91 11 97 21 15 23 12 66 -5 80 -19 16 -127
22 -185 10z"/>
<path d="M771 806 c-89 -86 -112 -104 -145 -109 -94 -15 -131 -123 -65 -193
64 -68 189 -19 189 74 0 32 11 48 111 148 95 97 110 116 104 136 -12 37 -25
48 -58 48 -25 0 -49 -18 -136 -104z"/>
<path d="M972 684 c-19 -13 -22 -24 -22 -92 0 -86 -22 -145 -79 -216 -36 -45
-39 -68 -11 -96 39 -39 84 -17 139 67 67 100 95 289 51 333 -24 24 -48 25 -78
4z"/>
</g>
</svg>
